<?xml version="1.0" encoding="utf-8"?>
<!-- Generator: Adobe Illustrator 19.1.0, SVG Export Plug-In . SVG Version: 6.00 Build 0)  -->
<svg version="1.1" id="Layer_1" xmlns="http://www.w3.org/2000/svg" xmlns:xlink="http://www.w3.org/1999/xlink" x="0px" y="0px"
	 viewBox="0 0 1184.8 233.7" style="enable-background:new 0 0 1184.8 233.7;" xml:space="preserve">
<style type="text/css">
	.st0{fill:#A97C50;}
	.st1{fill:url(#SVGID_1_);}
	.st2{fill:url(#SVGID_2_);}
	.st3{fill:#C49A6C;}
	.st4{fill:url(#SVGID_3_);}
	.st5{opacity:0.4;fill:#FFFFFF;}
	.st6{fill:url(#SVGID_4_);}
	.st7{fill:url(#SVGID_5_);}
	.st8{fill:#006838;}
	.st9{fill:url(#SVGID_6_);}
	.st10{fill:#FFFFFF;}
	.st11{fill:#39B54A;}
	.st12{fill:#8DC63F;}
	.st13{fill:url(#SVGID_7_);}
	.st14{fill:#009444;}
	.st15{fill:url(#SVGID_8_);}
	.st16{fill:#FFF200;}
	.st17{fill:#808285;}
	.st18{fill:#BE1E2D;}
	.st19{fill:none;stroke:#7F143E;stroke-width:0.54;stroke-linecap:round;stroke-miterlimit:10;}
	.st20{fill:url(#SVGID_9_);}
	.st21{fill:url(#SVGID_10_);}
	.st22{fill:url(#SVGID_11_);}
	.st23{fill:url(#SVGID_12_);}
	.st24{fill:url(#SVGID_13_);}
	.st25{fill:url(#SVGID_14_);}
	.st26{fill:url(#SVGID_15_);}
	.st27{fill:url(#SVGID_16_);}
	.st28{fill:url(#SVGID_17_);}
	.st29{fill:url(#SVGID_18_);}
	.st30{fill:url(#SVGID_19_);}
	.st31{fill:url(#SVGID_20_);}
	.st32{fill:url(#SVGID_21_);}
	.st33{fill:url(#SVGID_22_);}
	.st34{fill:url(#SVGID_23_);}
	.st35{fill:url(#SVGID_24_);}
	.st36{fill:url(#SVGID_25_);}
	.st37{fill:url(#SVGID_26_);}
	.st38{fill:url(#SVGID_27_);}
	.st39{fill:url(#SVGID_28_);}
	.st40{fill:url(#SVGID_29_);}
	.st41{fill:url(#SVGID_30_);}
	.st42{fill:url(#SVGID_31_);}
	.st43{fill:url(#SVGID_32_);}
	.st44{fill:url(#SVGID_33_);}
	.st45{fill:url(#SVGID_34_);}
	.st46{fill:url(#SVGID_35_);}
	.st47{fill:url(#SVGID_36_);}
	.st48{fill:url(#SVGID_37_);}
	.st49{fill:url(#SVGID_38_);}
	.st50{fill:url(#SVGID_39_);}
	.st51{fill:url(#SVGID_40_);}
	.st52{fill:url(#SVGID_41_);}
	.st53{fill:url(#SVGID_42_);}
	.st54{fill:url(#SVGID_43_);}
	.st55{fill:url(#SVGID_44_);}
	.st56{fill:url(#SVGID_45_);}
	.st57{fill:url(#SVGID_46_);}
	.st58{fill:url(#SVGID_47_);}
	.st59{fill:url(#SVGID_48_);}
</style>
<path class="st0" d="M159.1,109.2c6.7,2.9,14.5-0.3,17.4-7c2.9-6.7-0.3-14.5-7-17.4"/>
<linearGradient id="SVGID_1_" gradientUnits="userSpaceOnUse" x1="139.5949" y1="207.8145" x2="177.843" y2="207.8145">
	<stop  offset="0" style="stop-color:#662D91"/>
	<stop  offset="0.5805" style="stop-color:#00AEEF"/>
	<stop  offset="1" style="stop-color:#662D91;stop-opacity:0.5549"/>
</linearGradient>
<ellipse class="st1" cx="158.7" cy="207.8" rx="19.1" ry="7"/>
<linearGradient id="SVGID_2_" gradientUnits="userSpaceOnUse" x1="10.4514" y1="207.8145" x2="48.6994" y2="207.8145">
	<stop  offset="0" style="stop-color:#662D91"/>
	<stop  offset="0.5805" style="stop-color:#00AEEF"/>
	<stop  offset="1" style="stop-color:#662D91;stop-opacity:0.5549"/>
</linearGradient>
<ellipse class="st2" cx="29.6" cy="207.8" rx="19.1" ry="7"/>
<path class="st3" d="M157.9,107.6c6.7,2.9,14.5-0.3,17.4-7c2.9-6.7-0.3-14.5-7-17.4"/>
<radialGradient id="SVGID_3_" cx="90.7724" cy="78.3709" r="78.3709" gradientUnits="userSpaceOnUse">
	<stop  offset="0" style="stop-color:#2484C6"/>
	<stop  offset="0.4642" style="stop-color:#662D91;stop-opacity:0.7933"/>
	<stop  offset="1" style="stop-color:#27AAE1;stop-opacity:0.5549"/>
</radialGradient>
<circle class="st4" cx="90.8" cy="78.4" r="78.4"/>
<ellipse class="st5" cx="47.9" cy="82.9" rx="16.5" ry="11.9"/>
<ellipse class="st5" cx="52.9" cy="70.6" rx="8.6" ry="5.6"/>
<ellipse class="st5" cx="40.9" cy="96.3" rx="10.6" ry="6"/>
<circle class="st5" cx="134.3" cy="47.2" r="13.5"/>
<ellipse class="st5" cx="125.6" cy="37.6" rx="6.6" ry="5.1"/>
<ellipse class="st5" cx="119.9" cy="31" rx="4.5" ry="3.6"/>
<ellipse class="st5" cx="150.4" cy="54" rx="8.9" ry="7.1"/>
<ellipse class="st5" cx="127.2" cy="82" rx="21.4" ry="18.4"/>
<ellipse class="st5" cx="146.3" cy="96.4" rx="10.3" ry="9"/>
<circle class="st5" cx="75.5" cy="36.8" r="17.8"/>
<ellipse class="st5" cx="83.6" cy="20.8" rx="11.5" ry="9"/>
<ellipse class="st5" cx="56.6" cy="33.9" rx="12.4" ry="4.9"/>
<ellipse class="st5" cx="41.5" cy="62.5" rx="18" ry="14.6"/>
<linearGradient id="SVGID_4_" gradientUnits="userSpaceOnUse" x1="19.1509" y1="219.889" x2="169.8933" y2="219.889">
	<stop  offset="0" style="stop-color:#662D91"/>
	<stop  offset="0.5805" style="stop-color:#00AEEF"/>
	<stop  offset="1" style="stop-color:#662D91;stop-opacity:0.5549"/>
</linearGradient>
<ellipse class="st6" cx="94.5" cy="219.9" rx="75.4" ry="13.8"/>
<linearGradient id="SVGID_5_" gradientUnits="userSpaceOnUse" x1="35.8751" y1="191.9155" x2="155.3442" y2="191.9155">
	<stop  offset="0" style="stop-color:#006838"/>
	<stop  offset="0.5162" style="stop-color:#8DC63F"/>
	<stop  offset="1" style="stop-color:#006838"/>
</linearGradient>
<path class="st7" d="M35.9,209.2l16-52.6l83.2-2.7l20.2,57.5c0,10.3-26.7,18.6-59.7,18.6s-59.7-8.3-59.7-18.6V209.2z"/>
<path class="st8" d="M45.7,176.8c13.5,5.7,32.3,9.4,50.4,9.4c17.2,0,33.2-3.1,46.3-8.3l-6.7-18.9l-85.2,2.4L45.7,176.8z"/>
<linearGradient id="SVGID_6_" gradientUnits="userSpaceOnUse" x1="17.9101" y1="136.4543" x2="162.2847" y2="136.4543">
	<stop  offset="0" style="stop-color:#006838"/>
	<stop  offset="0.5162" style="stop-color:#8DC63F"/>
	<stop  offset="1" style="stop-color:#006838"/>
</linearGradient>
<path class="st9" d="M162.3,99c-13.4,14.9-40.7,25.2-72.2,25.2c-31.5,0-58.8-10.2-72.2-25.2v49.7c13.4,14.9,40.7,25.2,72.2,25.2
	c31.5,0,58.8-10.2,72.2-25.2V99z"/>
<path class="st8" d="M121.9,121.1c0,0-12.8,55.7-29.6,55.6c-21.5-0.1-24.6-56.4-24.6-56.4c12,1.5,12-5.3,28-5.2
	S114.8,119.9,121.9,121.1z"/>
<circle class="st3" cx="93.5" cy="107.5" r="27.9"/>
<ellipse class="st3" cx="65.6" cy="103.4" rx="5.7" ry="5.5"/>
<ellipse class="st3" cx="121.4" cy="103.4" rx="5.7" ry="5.5"/>
<ellipse class="st0" cx="81.9" cy="98.4" rx="6.4" ry="6.8"/>
<ellipse class="st0" cx="108.7" cy="98.4" rx="6.4" ry="6.8"/>
<g>
	<circle class="st10" cx="82" cy="99.7" r="5.3"/>
	<g>
		<circle cx="82.8" cy="100.3" r="4"/>
		<circle class="st10" cx="83.8" cy="100.1" r="1.3"/>
	</g>
</g>
<g>
	<circle class="st10" cx="108.4" cy="99.7" r="5.3"/>
	<g>
		<circle cx="107.7" cy="100.3" r="4"/>
		<circle class="st10" cx="106.7" cy="100.1" r="1.3"/>
	</g>
</g>
<polygon class="st11" points="35.7,134.8 42.8,134.8 37.7,141.2 43,141.2 35.1,152.2 36.8,143.1 32.7,143.1 "/>
<polygon class="st12" points="52.4,126.2 59.4,126.2 54.4,132.6 59.7,132.6 51.7,143.6 53.5,134.6 49.3,134.6 "/>
<polygon class="st12" points="58.7,146.5 65.7,146.5 60.7,152.9 66,152.9 58,163.9 59.8,154.8 55.6,154.8 "/>
<polygon class="st12" points="159.5,117.8 152.4,117.8 157.5,124.2 152.2,124.2 160.1,135.2 158.4,126.2 162.6,126.2 "/>
<polygon class="st12" points="149.7,133.9 142.7,133.9 147.7,140.3 142.5,140.3 150.4,151.3 148.6,142.2 152.8,142.2 "/>
<polygon class="st11" points="133.1,125.3 126,125.3 131.1,131.7 125.8,131.7 133.7,142.7 132,133.7 136.2,133.7 "/>
<polygon class="st12" points="126.8,145.6 119.7,145.6 124.8,152 119.5,152 127.4,163 125.7,153.9 129.9,153.9 "/>
<linearGradient id="SVGID_7_" gradientUnits="userSpaceOnUse" x1="66.5206" y1="137.7447" x2="120.6577" y2="137.7447">
	<stop  offset="0" style="stop-color:#A7A9AC"/>
	<stop  offset="0.5162" style="stop-color:#F1F2F2"/>
	<stop  offset="1" style="stop-color:#939598"/>
</linearGradient>
<path class="st13" d="M120.7,114.1c0,0-12.8,54.5-29.6,54.5c-21.5-0.1-24.6-56.4-24.6-56.4c12,1.5,12-5.3,28-5.2
	S115.4,122.1,120.7,114.1z"/>
<polygon class="st12" points="90.5,198.1 97.5,198.1 92.5,204.5 97.8,204.5 89.8,215.5 91.6,206.4 87.4,206.4 "/>
<polygon class="st12" points="57.9,198.1 64.9,198.1 59.9,204.5 65.2,204.5 57.2,215.5 59,206.4 54.8,206.4 "/>
<polygon class="st12" points="109.7,190.3 116.7,190.3 111.7,196.7 117,196.7 109,207.7 110.8,198.6 106.6,198.6 "/>
<polygon class="st11" points="76.3,190.3 83.3,190.3 78.3,196.7 83.6,196.7 75.6,207.7 77.4,198.6 73.2,198.6 "/>
<polygon class="st12" points="127.9,198.3 134.9,198.3 129.9,204.7 135.2,204.7 127.2,215.7 129,206.6 124.8,206.6 "/>
<polygon class="st11" points="52,182.9 58.8,185 52.1,189.6 57.1,191.2 46.3,199.4 50.6,191.3 46.6,190 "/>
<polygon class="st11" points="135.5,188 141.2,183.8 140.9,191.9 145.2,188.8 145.4,202.4 141.4,194.1 138,196.6 "/>
<polygon class="st12" points="78.2,210.3 85.2,211 79.6,216.9 84.9,217.3 75.9,227.6 78.5,218.7 74.4,218.4 "/>
<polygon class="st11" points="101.6,211.3 108.4,209.3 105.3,216.8 110.4,215.3 105.9,228.1 105,219 101,220.2 "/>
<path class="st14" d="M66.8,101.2c0,0,10.9-59,27.7-59.6c21.5-0.8,25.5,59,25.5,59c-0.3-7.2-8.6-16.4-24.7-15.7
	S71.7,92.9,66.8,101.2z"/>
<linearGradient id="SVGID_8_" gradientUnits="userSpaceOnUse" x1="66.8956" y1="70.5893" x2="119.5511" y2="70.5893">
	<stop  offset="0" style="stop-color:#006838"/>
	<stop  offset="0.5162" style="stop-color:#8DC63F"/>
	<stop  offset="1" style="stop-color:#006838"/>
</linearGradient>
<path class="st15" d="M66.9,100.8c0,0,10.4-59.7,27.2-60.3c21.5-0.8,25.5,59,25.5,59c-0.3-7.2-8.6-16.4-24.7-15.7
	S71.8,92.5,66.9,100.8z"/>
<polygon class="st14" points="89.6,84.4 87.2,90.3 96.4,84.3 "/>
<polygon class="st16" points="90.5,52.2 104.9,52.2 94.6,65.2 105.4,65.2 89.2,87.7 92.8,69.3 84.2,69.3 "/>
<path class="st0" d="M66,106.4c-1.3,0-2.3-1-2.3-2.2s1-2.2,2.3-2.2"/>
<path class="st0" d="M120.9,106.4c1.3,0,2.3-1,2.3-2.2s-1-2.2-2.3-2.2"/>
<ellipse class="st17" cx="96" cy="111.3" rx="9.5" ry="8"/>
<ellipse class="st0" cx="95.2" cy="109.2" rx="9.5" ry="8"/>
<ellipse class="st3" cx="95.4" cy="105.8" rx="5.4" ry="3.1"/>
<path class="st10" d="M88.6,136.7c0,0,5.2,2.8,2.2,9.8s-3.4,4.8-3.6,9.2c-0.2,4.4,4.8,9.6,4.8,9.6s2,1.6,2,0.2
	c0-1.4-3.8-5.8-1.8-9.8s7-3.2,8-9.8c1-6.6,0.6-7.4-1-11.2c-1.6-3.8-0.3-11.4-0.3-11.4s-7.7,2.2-15-6.3c-1.4-1.6-8.7,8.8,0.9,16.1
	C85.8,133.8,88.6,136.7,88.6,136.7z"/>
<path d="M85.2,118.1c0,0,2.9,4.2,8.7,4.5c5.7,0.4,12-4.5,13.1-6.4c2-3.3-8.9,16.4-15.9,16.2c-3.5-0.1-5.8-1.9-5.9-5
	C85,124.3,85.2,118.1,85.2,118.1z"/>
<g>
	<path class="st18" d="M95.5,129.1c0,1-2,2.4-4.3,2.4c-2.3,0-4.2-1.3-4.2-2.4c0-1,1.9-1.9,4.2-1.9C93.6,127.2,95.5,128.1,95.5,129.1
		z"/>
	<path class="st19" d="M92,127.4c-1.8,0.6-2.3,1.5-2.3,1.9s0,0.9,0.7,1.7"/>
</g>
<path class="st10" d="M65.9,111.8c0,0,2.6,25.6,5.8,33.2c3.2,7.6,3.3,11.3,8.3,17.1s6.4,5.7,8.6,6.1c3.1,0.7-2.8,1.4-7.2-15.2
	s4.6-8.2-3-20c-4.8-7.4-7.6-9.4-5.8-14.8c1.8-5.4,7.2-8.3,7.2-8.3s-2.6,1.3-8.2,1.9C68.1,112.2,65.9,111.8,65.9,111.8z"/>
<path class="st10" d="M109.5,112.2c0,0,2.8,3.8,3.8,8.8c0.8,4.2,0.9,6-3.9,11.4c-4.8,5.4-4.6,5-4.8,8.7c-0.2,4.8,2.9,8.7,0.8,12.6
	s-4.7,7.2-6.5,8.7c-3.4,2.8-2.4,6.7,2.7-0.5c5.1-7.2,6.3-7.8,10.2-19.2c3.9-11.4,6.6-20.1,7.5-23.1s0.9-3.2,0.9-3.2l0.3-2
	c0,0-0.3,1.1-1.8,1.7c-1.4,0.6-3.2,0.1-5-1.3C111.8,113.2,109.5,112.2,109.5,112.2z"/>
<path class="st0" d="M357.6,109.2c6.7,2.9,14.5-0.3,17.4-7s-0.3-14.5-7-17.4"/>
<path class="st0" d="M220.6,111.5c-6.7,2.9-14.5-0.3-17.4-7c-2.9-6.7,1.6-15.1,7-17.4"/>
<linearGradient id="SVGID_9_" gradientUnits="userSpaceOnUse" x1="338.0332" y1="207.8145" x2="376.2813" y2="207.8145">
	<stop  offset="0" style="stop-color:#662D91"/>
	<stop  offset="0.5805" style="stop-color:#00AEEF"/>
	<stop  offset="1" style="stop-color:#662D91;stop-opacity:0.5549"/>
</linearGradient>
<ellipse class="st20" cx="357.2" cy="207.8" rx="19.1" ry="7"/>
<linearGradient id="SVGID_10_" gradientUnits="userSpaceOnUse" x1="208.8897" y1="207.8145" x2="247.1377" y2="207.8145">
	<stop  offset="0" style="stop-color:#662D91"/>
	<stop  offset="0.5805" style="stop-color:#00AEEF"/>
	<stop  offset="1" style="stop-color:#662D91;stop-opacity:0.5549"/>
</linearGradient>
<ellipse class="st21" cx="228" cy="207.8" rx="19.1" ry="7"/>
<path class="st3" d="M222.1,110.4c-6.7,2.9-14.5-0.3-17.4-7c-2.9-6.7,0.3-14.5,7-17.4"/>
<path class="st3" d="M356.4,107.6c6.7,2.9,14.5-0.3,17.4-7s-0.3-14.5-7-17.4"/>
<radialGradient id="SVGID_11_" cx="289.2107" cy="78.3709" r="78.3709" gradientUnits="userSpaceOnUse">
	<stop  offset="0" style="stop-color:#2484C6"/>
	<stop  offset="0.4642" style="stop-color:#662D91;stop-opacity:0.7933"/>
	<stop  offset="1" style="stop-color:#27AAE1;stop-opacity:0.5549"/>
</radialGradient>
<circle class="st22" cx="289.2" cy="78.4" r="78.4"/>
<ellipse class="st5" cx="243.4" cy="79.9" rx="16.5" ry="11.9"/>
<ellipse class="st5" cx="251.3" cy="70.6" rx="8.6" ry="5.6"/>
<ellipse class="st5" cx="242.3" cy="96.3" rx="10.6" ry="6"/>
<circle class="st5" cx="337.8" cy="47.2" r="13.5"/>
<ellipse class="st5" cx="320.1" cy="37.6" rx="6.6" ry="5.1"/>
<ellipse class="st5" cx="318.4" cy="25" rx="4.5" ry="3.6"/>
<ellipse class="st5" cx="345.8" cy="57" rx="8.9" ry="7.1"/>
<ellipse class="st5" cx="321.7" cy="82" rx="21.4" ry="18.4"/>
<ellipse class="st5" cx="346.8" cy="96.4" rx="10.3" ry="9"/>
<circle class="st5" cx="273.9" cy="32.8" r="17.8"/>
<ellipse class="st5" cx="284" cy="17.8" rx="11.5" ry="9"/>
<ellipse class="st5" cx="255" cy="30.9" rx="12.4" ry="4.9"/>
<ellipse class="st5" cx="242.9" cy="59.5" rx="18" ry="14.6"/>
<linearGradient id="SVGID_12_" gradientUnits="userSpaceOnUse" x1="217.5892" y1="219.889" x2="368.3316" y2="219.889">
	<stop  offset="0" style="stop-color:#662D91"/>
	<stop  offset="0.5805" style="stop-color:#00AEEF"/>
	<stop  offset="1" style="stop-color:#662D91;stop-opacity:0.5549"/>
</linearGradient>
<ellipse class="st23" cx="293" cy="219.9" rx="75.4" ry="13.8"/>
<linearGradient id="SVGID_13_" gradientUnits="userSpaceOnUse" x1="234.3134" y1="191.9155" x2="353.7826" y2="191.9155">
	<stop  offset="0" style="stop-color:#006838"/>
	<stop  offset="0.5162" style="stop-color:#8DC63F"/>
	<stop  offset="1" style="stop-color:#006838"/>
</linearGradient>
<path class="st24" d="M234.3,209.2l16-52.6l83.2-2.7l20.2,57.5c0,10.3-26.7,18.6-59.7,18.6s-59.7-8.3-59.7-18.6V209.2z"/>
<path class="st8" d="M244.2,176.8c13.5,5.7,32.3,9.4,50.4,9.4c17.2,0,33.2-3.1,46.3-8.3l-6.7-18.9l-85.2,2.4L244.2,176.8z"/>
<linearGradient id="SVGID_14_" gradientUnits="userSpaceOnUse" x1="216.3484" y1="136.4543" x2="360.723" y2="136.4543">
	<stop  offset="0" style="stop-color:#006838"/>
	<stop  offset="0.5162" style="stop-color:#8DC63F"/>
	<stop  offset="1" style="stop-color:#006838"/>
</linearGradient>
<path class="st25" d="M360.7,99c-13.4,14.9-40.7,25.2-72.2,25.2c-31.5,0-58.8-10.2-72.2-25.2v49.7c13.4,14.9,40.7,25.2,72.2,25.2
	c31.5,0,58.8-10.2,72.2-25.2V99z"/>
<path class="st8" d="M320.3,121.1c0,0-12.8,55.7-29.6,55.6c-21.5-0.1-24.6-56.4-24.6-56.4c12,1.5,12-5.3,28-5.2
	C310.3,115.1,313.3,119.9,320.3,121.1z"/>
<circle class="st3" cx="291.9" cy="107.5" r="27.9"/>
<ellipse class="st3" cx="264.1" cy="103.4" rx="5.7" ry="5.5"/>
<ellipse class="st3" cx="319.8" cy="103.4" rx="5.7" ry="5.5"/>
<ellipse class="st0" cx="280.3" cy="98.4" rx="6.4" ry="6.8"/>
<ellipse class="st0" cx="307.2" cy="98.4" rx="6.4" ry="6.8"/>
<g>
	<circle class="st10" cx="280.5" cy="99.7" r="5.3"/>
	<g>
		<circle cx="281.2" cy="100.3" r="4"/>
		<circle class="st10" cx="282.2" cy="100.1" r="1.3"/>
	</g>
</g>
<g>
	<circle class="st10" cx="306.9" cy="99.7" r="5.3"/>
	<g>
		<circle cx="306.1" cy="100.3" r="4"/>
		<circle class="st10" cx="305.2" cy="100.1" r="1.3"/>
	</g>
</g>
<polygon class="st11" points="224.4,118.7 231.5,118.7 226.4,125.1 231.7,125.1 223.8,136.1 225.5,127.1 221.3,127.1 "/>
<polygon class="st12" points="234.2,134.8 241.2,134.8 236.2,141.2 241.4,141.2 233.5,152.2 235.3,143.1 231.1,143.1 "/>
<polygon class="st12" points="250.8,126.2 257.9,126.2 252.8,132.6 258.1,132.6 250.2,143.6 251.9,134.6 247.7,134.6 "/>
<polygon class="st11" points="257.1,146.5 264.2,146.5 259.1,152.9 264.4,152.9 256.5,163.9 258.2,154.8 254,154.8 "/>
<polygon class="st12" points="357.9,117.8 350.9,117.8 355.9,124.2 350.6,124.2 358.6,135.2 356.8,126.2 361,126.2 "/>
<polygon class="st11" points="348.2,133.9 341.1,133.9 346.2,140.3 340.9,140.3 348.8,151.3 347.1,142.2 351.2,142.2 "/>
<polygon class="st12" points="331.5,125.3 324.5,125.3 329.5,131.7 324.2,131.7 332.2,142.7 330.4,133.7 334.6,133.7 "/>
<polygon class="st12" points="325.2,145.6 318.2,145.6 323.2,152 317.9,152 325.9,163 324.1,153.9 328.3,153.9 "/>
<linearGradient id="SVGID_15_" gradientUnits="userSpaceOnUse" x1="264.9589" y1="137.7447" x2="319.096" y2="137.7447">
	<stop  offset="0" style="stop-color:#A7A9AC"/>
	<stop  offset="0.5162" style="stop-color:#F1F2F2"/>
	<stop  offset="1" style="stop-color:#939598"/>
</linearGradient>
<path class="st26" d="M319.1,114.1c0,0-12.8,54.5-29.6,54.5c-21.5-0.1-24.6-56.4-24.6-56.4c12,1.5,12-5.3,28-5.2
	C309.1,107,313.8,122.1,319.1,114.1z"/>
<polygon class="st12" points="288.9,198.1 296,198.1 290.9,204.5 296.2,204.5 288.3,215.5 290,206.4 285.8,206.4 "/>
<polygon class="st11" points="256.3,198.1 263.4,198.1 258.3,204.5 263.6,204.5 255.7,215.5 257.4,206.4 253.2,206.4 "/>
<polygon class="st12" points="308.1,190.3 315.2,190.3 310.1,196.7 315.4,196.7 307.5,207.7 309.2,198.6 305,198.6 "/>
<polygon class="st11" points="274.7,190.3 281.8,190.3 276.7,196.7 282,196.7 274.1,207.7 275.8,198.6 271.6,198.6 "/>
<polygon class="st11" points="326.3,198.3 333.4,198.3 328.3,204.7 333.6,204.7 325.7,215.7 327.4,206.6 323.2,206.6 "/>
<polygon class="st12" points="250.5,182.9 257.2,185 250.5,189.6 255.5,191.2 244.8,199.4 249.1,191.3 245.1,190 "/>
<polygon class="st12" points="334,188 339.6,183.8 339.4,191.9 343.6,188.8 343.8,202.4 339.8,194.1 336.5,196.6 "/>
<polygon class="st12" points="276.6,210.3 283.7,211 278,216.9 283.3,217.3 274.4,227.6 277,218.7 272.8,218.4 "/>
<polygon class="st12" points="300,211.3 306.8,209.3 303.7,216.8 308.8,215.3 304.3,228.1 303.5,219 299.4,220.2 "/>
<path class="st14" d="M265.2,101.2c0,0,10.9-59,27.7-59.6c21.5-0.8,25.5,59,25.5,59c-0.3-7.2-8.6-16.4-24.7-15.7
	C277.7,85.4,270.2,92.9,265.2,101.2z"/>
<linearGradient id="SVGID_16_" gradientUnits="userSpaceOnUse" x1="265.3339" y1="70.5893" x2="317.9894" y2="70.5893">
	<stop  offset="0" style="stop-color:#006838"/>
	<stop  offset="0.5162" style="stop-color:#8DC63F"/>
	<stop  offset="1" style="stop-color:#006838"/>
</linearGradient>
<path class="st27" d="M265.3,100.8c0,0,10.4-59.7,27.2-60.3c21.5-0.8,25.5,59,25.5,59c-0.3-7.2-8.6-16.4-24.7-15.7
	C277.3,84.3,270.3,92.5,265.3,100.8z"/>
<polygon class="st14" points="288.1,84.4 285.7,90.3 294.8,84.3 "/>
<polygon class="st16" points="289,52.2 303.4,52.2 293,65.2 303.8,65.2 287.6,87.7 291.2,69.3 282.7,69.3 "/>
<path class="st0" d="M264.4,106.4c-1.3,0-2.3-1-2.3-2.2s1-2.2,2.3-2.2"/>
<path class="st0" d="M319.4,106.4c1.3,0,2.3-1,2.3-2.2s-1-2.2-2.3-2.2"/>
<ellipse class="st17" cx="294.5" cy="111.3" rx="9.5" ry="8"/>
<ellipse class="st0" cx="293.7" cy="109.2" rx="9.5" ry="8"/>
<ellipse class="st3" cx="293.9" cy="105.8" rx="5.4" ry="3.1"/>
<path class="st10" d="M287.1,136.7c0,0,5.2,2.8,2.2,9.8s-3.4,4.8-3.6,9.2c-0.2,4.4,4.8,9.6,4.8,9.6s2,1.6,2,0.2
	c0-1.4-3.8-5.8-1.8-9.8s7-3.2,8-9.8c1-6.6,0.6-7.4-1-11.2c-1.6-3.8-0.3-11.4-0.3-11.4s-7.6,2.2-15-6.3c-1.4-1.6-8.7,8.8,0.9,16.1
	C284.3,133.8,287.1,136.7,287.1,136.7z"/>
<path d="M283.7,118.1c0,0,2.9,4.2,8.7,4.5c5.7,0.4,12-4.5,13.1-6.4c2-3.3-8.9,16.4-15.9,16.2c-3.5-0.1-5.8-1.9-5.9-5
	C283.5,124.3,283.7,118.1,283.7,118.1z"/>
<g>
	<path class="st18" d="M294,129.1c0,1-2,2.4-4.3,2.4c-2.3,0-4.2-1.3-4.2-2.4c0-1,1.9-1.9,4.2-1.9S294,128.1,294,129.1z"/>
	<path class="st19" d="M290.4,127.4c-1.8,0.6-2.3,1.5-2.3,1.9s0,0.9,0.7,1.7"/>
</g>
<path class="st10" d="M264.4,111.8c0,0,2.6,25.6,5.8,33.2c3.2,7.6,3.3,11.3,8.3,17.1s6.4,5.7,8.6,6.1c3.1,0.7-2.9,1.4-7.2-15.2
	c-4.4-16.6,4.6-8.2-3-20c-4.8-7.4-7.6-9.4-5.8-14.8c1.8-5.4,7.2-8.3,7.2-8.3s-2.6,1.3-8.2,1.9C266.6,112.2,264.4,111.8,264.4,111.8z
	"/>
<path class="st10" d="M307.9,112.2c0,0,2.8,3.8,3.9,8.8c0.8,4.2,0.9,6-3.9,11.4c-4.8,5.4-4.6,5-4.8,8.7c-0.2,4.8,2.9,8.7,0.8,12.6
	s-4.7,7.2-6.5,8.7c-3.4,2.8-2.4,6.7,2.7-0.5s6.3-7.8,10.2-19.2c3.9-11.4,6.6-20.1,7.5-23.1c0.9-3,0.9-3.2,0.9-3.2l0.3-2
	c0,0-0.3,1.1-1.8,1.7c-1.4,0.6-3.1,0.1-5-1.3C310.3,113.2,307.9,112.2,307.9,112.2z"/>
<path class="st0" d="M555.9,109.2c6.7,2.9,14.5-0.3,17.4-7c2.9-6.7-0.3-14.5-7-17.4"/>
<path class="st0" d="M419,111.5c-6.7,2.9-14.5-0.3-17.4-7s1.6-15.1,7-17.4"/>
<linearGradient id="SVGID_17_" gradientUnits="userSpaceOnUse" x1="536.3665" y1="207.8145" x2="574.6146" y2="207.8145">
	<stop  offset="0" style="stop-color:#662D91"/>
	<stop  offset="0.5805" style="stop-color:#00AEEF"/>
	<stop  offset="1" style="stop-color:#662D91;stop-opacity:0.5549"/>
</linearGradient>
<ellipse class="st28" cx="555.5" cy="207.8" rx="19.1" ry="7"/>
<linearGradient id="SVGID_18_" gradientUnits="userSpaceOnUse" x1="407.223" y1="207.8145" x2="445.4711" y2="207.8145">
	<stop  offset="0" style="stop-color:#662D91"/>
	<stop  offset="0.5805" style="stop-color:#00AEEF"/>
	<stop  offset="1" style="stop-color:#662D91;stop-opacity:0.5549"/>
</linearGradient>
<ellipse class="st29" cx="426.3" cy="207.8" rx="19.1" ry="7"/>
<path class="st3" d="M420.5,110.4c-6.7,2.9-14.5-0.3-17.4-7s0.3-14.5,7-17.4"/>
<path class="st3" d="M554.7,107.6c6.7,2.9,14.5-0.3,17.4-7c2.9-6.7-0.3-14.5-7-17.4"/>
<radialGradient id="SVGID_19_" cx="487.5441" cy="78.3709" r="78.3709" gradientUnits="userSpaceOnUse">
	<stop  offset="0" style="stop-color:#2484C6"/>
	<stop  offset="0.4642" style="stop-color:#662D91;stop-opacity:0.7933"/>
	<stop  offset="1" style="stop-color:#27AAE1;stop-opacity:0.5549"/>
</radialGradient>
<circle class="st30" cx="487.5" cy="78.4" r="78.4"/>
<ellipse class="st5" cx="437.7" cy="76.9" rx="16.5" ry="11.9"/>
<ellipse class="st5" cx="452.6" cy="70.6" rx="8.6" ry="5.6"/>
<ellipse class="st5" cx="442.6" cy="98.3" rx="10.6" ry="6"/>
<circle class="st5" cx="536.1" cy="46.2" r="13.5"/>
<ellipse class="st5" cx="515.4" cy="37.6" rx="6.6" ry="5.1"/>
<ellipse class="st5" cx="518.7" cy="25" rx="4.5" ry="3.6"/>
<ellipse class="st5" cx="544.1" cy="59" rx="8.9" ry="7.1"/>
<ellipse class="st5" cx="518" cy="82" rx="21.4" ry="18.4"/>
<ellipse class="st5" cx="547.1" cy="95.4" rx="10.3" ry="9"/>
<circle class="st5" cx="474.2" cy="34.8" r="17.8"/>
<ellipse class="st5" cx="485.3" cy="17.8" rx="11.5" ry="9"/>
<ellipse class="st5" cx="453.3" cy="26.9" rx="12.4" ry="4.9"/>
<ellipse class="st5" cx="441.3" cy="53.5" rx="18" ry="14.6"/>
<linearGradient id="SVGID_20_" gradientUnits="userSpaceOnUse" x1="415.9225" y1="219.889" x2="566.665" y2="219.889">
	<stop  offset="0" style="stop-color:#662D91"/>
	<stop  offset="0.5805" style="stop-color:#00AEEF"/>
	<stop  offset="1" style="stop-color:#662D91;stop-opacity:0.5549"/>
</linearGradient>
<ellipse class="st31" cx="491.3" cy="219.9" rx="75.4" ry="13.8"/>
<linearGradient id="SVGID_21_" gradientUnits="userSpaceOnUse" x1="432.6468" y1="191.9155" x2="552.1159" y2="191.9155">
	<stop  offset="0" style="stop-color:#006838"/>
	<stop  offset="0.5162" style="stop-color:#8DC63F"/>
	<stop  offset="1" style="stop-color:#006838"/>
</linearGradient>
<path class="st32" d="M432.6,209.2l16-52.6l83.2-2.7l20.2,57.5c0,10.3-26.7,18.6-59.7,18.6s-59.7-8.3-59.7-18.6V209.2z"/>
<path class="st8" d="M442.5,176.8c13.5,5.7,32.3,9.4,50.4,9.4c17.2,0,33.2-3.1,46.3-8.3l-6.7-18.9l-85.2,2.4L442.5,176.8z"/>
<linearGradient id="SVGID_22_" gradientUnits="userSpaceOnUse" x1="414.6818" y1="136.4543" x2="559.0563" y2="136.4543">
	<stop  offset="0" style="stop-color:#006838"/>
	<stop  offset="0.5162" style="stop-color:#8DC63F"/>
	<stop  offset="1" style="stop-color:#006838"/>
</linearGradient>
<path class="st33" d="M559.1,99c-13.4,14.9-40.7,25.2-72.2,25.2c-31.5,0-58.8-10.2-72.2-25.2v49.7c13.4,14.9,40.7,25.2,72.2,25.2
	c31.5,0,58.8-10.2,72.2-25.2V99z"/>
<path class="st8" d="M518.6,121.1c0,0-12.8,55.7-29.6,55.6c-21.5-0.1-24.6-56.4-24.6-56.4c12,1.5,12-5.3,28-5.2
	C508.6,115.1,511.6,119.9,518.6,121.1z"/>
<circle class="st3" cx="490.3" cy="107.5" r="27.9"/>
<ellipse class="st3" cx="462.4" cy="103.4" rx="5.7" ry="5.5"/>
<ellipse class="st3" cx="518.2" cy="103.4" rx="5.7" ry="5.5"/>
<ellipse class="st0" cx="478.7" cy="98.4" rx="6.4" ry="6.8"/>
<ellipse class="st0" cx="505.5" cy="98.4" rx="6.4" ry="6.8"/>
<g>
	<circle class="st10" cx="478.8" cy="99.7" r="5.3"/>
	<g>
		<circle cx="479.6" cy="100.3" r="4"/>
		<circle class="st10" cx="480.5" cy="100.1" r="1.3"/>
	</g>
</g>
<g>
	<circle class="st10" cx="505.2" cy="99.7" r="5.3"/>
	<g>
		<circle cx="504.5" cy="100.3" r="4"/>
		<circle class="st10" cx="503.5" cy="100.1" r="1.3"/>
	</g>
</g>
<polygon class="st12" points="422.8,118.7 429.8,118.7 424.7,125.1 430,125.1 422.1,136.1 423.9,127.1 419.7,127.1 "/>
<polygon class="st11" points="432.5,134.8 439.6,134.8 434.5,141.2 439.8,141.2 431.9,152.2 433.6,143.1 429.4,143.1 "/>
<polygon class="st11" points="449.2,126.2 456.2,126.2 451.1,132.6 456.4,132.6 448.5,143.6 450.3,134.6 446.1,134.6 "/>
<polygon class="st12" points="455.5,146.5 462.5,146.5 457.4,152.9 462.7,152.9 454.8,163.9 456.6,154.8 452.4,154.8 "/>
<polygon class="st11" points="556.2,117.8 549.2,117.8 554.3,124.2 549,124.2 556.9,135.2 555.1,126.2 559.3,126.2 "/>
<polygon class="st12" points="546.5,133.9 539.4,133.9 544.5,140.3 539.2,140.3 547.2,151.3 545.4,142.2 549.6,142.2 "/>
<polygon class="st12" points="529.8,125.3 522.8,125.3 527.9,131.7 522.6,131.7 530.5,142.7 528.7,133.7 532.9,133.7 "/>
<polygon class="st11" points="523.5,145.6 516.5,145.6 521.6,152 516.3,152 524.2,163 522.4,153.9 526.6,153.9 "/>
<linearGradient id="SVGID_23_" gradientUnits="userSpaceOnUse" x1="463.2923" y1="137.7447" x2="517.4294" y2="137.7447">
	<stop  offset="0" style="stop-color:#A7A9AC"/>
	<stop  offset="0.5162" style="stop-color:#F1F2F2"/>
	<stop  offset="1" style="stop-color:#939598"/>
</linearGradient>
<path class="st34" d="M517.4,114.1c0,0-12.8,54.5-29.6,54.5c-21.5-0.1-24.6-56.4-24.6-56.4c12,1.5,12-5.3,28-5.2
	C507.4,107,512.2,122.1,517.4,114.1z"/>
<polygon class="st12" points="487.3,198.1 494.3,198.1 489.2,204.5 494.5,204.5 486.6,215.5 488.4,206.4 484.2,206.4 "/>
<polygon class="st12" points="454.7,198.1 461.7,198.1 456.6,204.5 461.9,204.5 454,215.5 455.8,206.4 451.6,206.4 "/>
<polygon class="st11" points="506.5,190.3 513.5,190.3 508.4,196.7 513.7,196.7 505.8,207.7 507.6,198.6 503.4,198.6 "/>
<polygon class="st12" points="473.1,190.3 480.1,190.3 475,196.7 480.3,196.7 472.4,207.7 474.2,198.6 470,198.6 "/>
<polygon class="st12" points="524.7,198.3 531.7,198.3 526.6,204.7 531.9,204.7 524,215.7 525.8,206.6 521.6,206.6 "/>
<polygon class="st11" points="448.8,182.9 455.5,185 448.8,189.6 453.9,191.2 443.1,199.4 447.4,191.3 443.4,190 "/>
<polygon class="st11" points="532.3,188 537.9,183.8 537.7,191.9 541.9,188.8 542.1,202.4 538.2,194.1 534.8,196.6 "/>
<polygon class="st11" points="475,210.3 482,211 476.4,216.9 481.6,217.3 472.7,227.6 475.3,218.7 471.1,218.4 "/>
<polygon class="st12" points="498.4,211.3 505.1,209.3 502.1,216.8 507.1,215.3 502.6,228.1 501.8,219 497.8,220.2 "/>
<path class="st14" d="M463.6,101.2c0,0,10.9-59,27.7-59.6c21.5-0.8,25.5,59,25.5,59c-0.3-7.2-8.6-16.4-24.7-15.7
	C476,85.4,468.5,92.9,463.6,101.2z"/>
<linearGradient id="SVGID_24_" gradientUnits="userSpaceOnUse" x1="463.6673" y1="70.5893" x2="516.3228" y2="70.5893">
	<stop  offset="0" style="stop-color:#006838"/>
	<stop  offset="0.5162" style="stop-color:#8DC63F"/>
	<stop  offset="1" style="stop-color:#006838"/>
</linearGradient>
<path class="st35" d="M463.7,100.8c0,0,10.4-59.7,27.2-60.3c21.5-0.8,25.5,59,25.5,59c-0.3-7.2-8.6-16.4-24.7-15.7
	C475.6,84.3,468.6,92.5,463.7,100.8z"/>
<polygon class="st14" points="486.4,84.4 484,90.3 493.1,84.3 "/>
<polygon class="st16" points="487.3,52.2 501.7,52.2 491.4,65.2 502.2,65.2 486,87.7 489.6,69.3 481,69.3 "/>
<path class="st0" d="M462.8,106.4c-1.3,0-2.3-1-2.3-2.2s1-2.2,2.3-2.2"/>
<path class="st0" d="M517.7,106.4c1.3,0,2.3-1,2.3-2.2s-1-2.2-2.3-2.2"/>
<ellipse class="st17" cx="492.8" cy="111.3" rx="9.5" ry="8"/>
<ellipse class="st0" cx="492" cy="109.2" rx="9.5" ry="8"/>
<ellipse class="st3" cx="492.2" cy="105.8" rx="5.4" ry="3.1"/>
<path class="st10" d="M485.4,136.7c0,0,5.2,2.8,2.2,9.8s-3.4,4.8-3.6,9.2c-0.2,4.4,4.8,9.6,4.8,9.6s2,1.6,2,0.2
	c0-1.4-3.8-5.8-1.8-9.8s7-3.2,8-9.8c1-6.6,0.6-7.4-1-11.2c-1.6-3.8-0.3-11.4-0.3-11.4s-7.6,2.2-15-6.3c-1.4-1.6-8.7,8.8,0.9,16.1
	C482.6,133.8,485.4,136.7,485.4,136.7z"/>
<path d="M482,118.1c0,0,2.9,4.2,8.7,4.5c5.7,0.4,12-4.5,13.1-6.4c2-3.3-8.9,16.4-15.9,16.2c-3.5-0.1-5.8-1.9-5.9-5
	C481.8,124.3,482,118.1,482,118.1z"/>
<g>
	<path class="st18" d="M492.3,129.1c0,1-2,2.4-4.3,2.4c-2.3,0-4.2-1.3-4.2-2.4c0-1,1.9-1.9,4.2-1.9
		C490.4,127.2,492.3,128.1,492.3,129.1z"/>
	<path class="st19" d="M488.7,127.4c-1.8,0.6-2.3,1.5-2.3,1.9s0,0.9,0.7,1.7"/>
</g>
<path class="st10" d="M462.7,111.8c0,0,2.6,25.6,5.8,33.2c3.2,7.6,3.3,11.3,8.3,17.1s6.4,5.7,8.5,6.1c3.1,0.7-2.9,1.4-7.2-15.2
	s4.6-8.2-3-20c-4.8-7.4-7.6-9.4-5.8-14.8c1.8-5.4,7.2-8.3,7.2-8.3s-2.6,1.3-8.2,1.9C464.9,112.2,462.7,111.8,462.7,111.8z"/>
<path class="st10" d="M506.2,112.2c0,0,2.8,3.8,3.9,8.8c0.9,4.2,0.9,6-3.9,11.4c-4.8,5.4-4.6,5-4.8,8.7c-0.2,4.8,2.9,8.7,0.8,12.6
	s-4.7,7.2-6.5,8.7c-3.4,2.8-2.4,6.7,2.7-0.5c5.1-7.2,6.3-7.8,10.2-19.2c3.9-11.4,6.6-20.1,7.5-23.1c0.9-3,0.9-3.2,0.9-3.2l0.3-2
	c0,0-0.3,1.1-1.8,1.7c-1.4,0.6-3.1,0.1-5-1.3C508.6,113.2,506.2,112.2,506.2,112.2z"/>
<path class="st0" d="M473.1,101.4c-1.6-3.4-0.2-7.3,3-8.8c3.2-1.5,7.1,0.1,8.6,3.5"/>
<path class="st0" d="M499.8,95.4c1.7-3.3,5.7-4.7,8.8-3c3.1,1.6,4.3,5.6,2.5,8.9"/>
<path class="st0" d="M754.6,109.2c6.7,2.9,14.5-0.3,17.4-7c2.9-6.7-0.3-14.5-7-17.4"/>
<path class="st0" d="M617.6,111.5c-6.7,2.9-14.5-0.3-17.4-7c-2.9-6.7,1.6-15.1,7-17.4"/>
<linearGradient id="SVGID_25_" gradientUnits="userSpaceOnUse" x1="735.0332" y1="207.8145" x2="773.2813" y2="207.8145">
	<stop  offset="0" style="stop-color:#662D91"/>
	<stop  offset="0.5805" style="stop-color:#00AEEF"/>
	<stop  offset="1" style="stop-color:#662D91;stop-opacity:0.5549"/>
</linearGradient>
<ellipse class="st36" cx="754.2" cy="207.8" rx="19.1" ry="7"/>
<linearGradient id="SVGID_26_" gradientUnits="userSpaceOnUse" x1="605.8896" y1="207.8145" x2="644.1378" y2="207.8145">
	<stop  offset="0" style="stop-color:#662D91"/>
	<stop  offset="0.5805" style="stop-color:#00AEEF"/>
	<stop  offset="1" style="stop-color:#662D91;stop-opacity:0.5549"/>
</linearGradient>
<ellipse class="st37" cx="625" cy="207.8" rx="19.1" ry="7"/>
<path class="st3" d="M619.1,110.4c-6.7,2.9-14.5-0.3-17.4-7c-2.9-6.7,0.3-14.5,7-17.4"/>
<path class="st3" d="M753.4,107.6c6.7,2.9,14.5-0.3,17.4-7c2.9-6.7-0.3-14.5-7-17.4"/>
<radialGradient id="SVGID_27_" cx="686.2108" cy="78.3709" r="78.3709" gradientUnits="userSpaceOnUse">
	<stop  offset="0" style="stop-color:#2484C6"/>
	<stop  offset="0.4642" style="stop-color:#662D91;stop-opacity:0.7933"/>
	<stop  offset="1" style="stop-color:#27AAE1;stop-opacity:0.5549"/>
</radialGradient>
<circle class="st38" cx="686.2" cy="78.4" r="78.4"/>
<ellipse class="st5" cx="640.4" cy="79.9" rx="16.5" ry="11.9"/>
<ellipse class="st5" cx="655.3" cy="70.6" rx="8.6" ry="5.6"/>
<ellipse class="st5" cx="620.1" cy="70.6" rx="8.6" ry="5.6"/>
<ellipse class="st5" cx="637.3" cy="102.3" rx="10.6" ry="6"/>
<circle class="st5" cx="734.8" cy="44.2" r="13.5"/>
<ellipse class="st5" cx="711.1" cy="37.6" rx="6.6" ry="5.1"/>
<ellipse class="st5" cx="717.4" cy="22" rx="4.5" ry="3.6"/>
<ellipse class="st5" cx="742.8" cy="62" rx="8.9" ry="7.1"/>
<ellipse class="st5" cx="716.7" cy="79" rx="21.4" ry="18.4"/>
<ellipse class="st5" cx="743.8" cy="95.4" rx="10.3" ry="9"/>
<circle class="st5" cx="666.9" cy="34.8" r="17.8"/>
<circle class="st5" cx="699.8" cy="53.2" r="17.8"/>
<ellipse class="st5" cx="687" cy="14.8" rx="11.5" ry="9"/>
<ellipse class="st5" cx="652" cy="21.9" rx="12.4" ry="4.9"/>
<ellipse class="st5" cx="644.9" cy="53.5" rx="18" ry="14.6"/>
<linearGradient id="SVGID_28_" gradientUnits="userSpaceOnUse" x1="614.5892" y1="219.889" x2="765.3316" y2="219.889">
	<stop  offset="0" style="stop-color:#662D91"/>
	<stop  offset="0.5805" style="stop-color:#00AEEF"/>
	<stop  offset="1" style="stop-color:#662D91;stop-opacity:0.5549"/>
</linearGradient>
<ellipse class="st39" cx="690" cy="219.9" rx="75.4" ry="13.8"/>
<linearGradient id="SVGID_29_" gradientUnits="userSpaceOnUse" x1="631.3134" y1="191.9155" x2="750.7825" y2="191.9155">
	<stop  offset="0" style="stop-color:#006838"/>
	<stop  offset="0.5162" style="stop-color:#8DC63F"/>
	<stop  offset="1" style="stop-color:#006838"/>
</linearGradient>
<path class="st40" d="M631.3,209.2l16-52.6l83.2-2.7l20.2,57.5c0,10.3-26.7,18.6-59.7,18.6s-59.7-8.3-59.7-18.6V209.2z"/>
<path class="st8" d="M641.2,176.8c13.5,5.7,32.3,9.4,50.4,9.4c17.2,0,33.2-3.1,46.3-8.3l-6.7-18.9l-85.2,2.4L641.2,176.8z"/>
<linearGradient id="SVGID_30_" gradientUnits="userSpaceOnUse" x1="613.3484" y1="136.4543" x2="757.723" y2="136.4543">
	<stop  offset="0" style="stop-color:#006838"/>
	<stop  offset="0.5162" style="stop-color:#8DC63F"/>
	<stop  offset="1" style="stop-color:#006838"/>
</linearGradient>
<path class="st41" d="M757.7,99c-13.4,14.9-40.7,25.2-72.2,25.2c-31.5,0-58.8-10.2-72.2-25.2v49.7c13.4,14.9,40.7,25.2,72.2,25.2
	c31.5,0,58.8-10.2,72.2-25.2V99z"/>
<path class="st8" d="M717.3,121.1c0,0-12.8,55.7-29.6,55.6c-21.5-0.1-24.6-56.4-24.6-56.4c12,1.5,12-5.3,28-5.2
	S710.3,119.9,717.3,121.1z"/>
<circle class="st3" cx="688.9" cy="107.5" r="27.9"/>
<ellipse class="st3" cx="661.1" cy="103.4" rx="5.7" ry="5.5"/>
<ellipse class="st3" cx="716.8" cy="103.4" rx="5.7" ry="5.5"/>
<ellipse class="st0" cx="677.3" cy="98.4" rx="6.4" ry="6.8"/>
<ellipse class="st0" cx="704.2" cy="98.4" rx="6.4" ry="6.8"/>
<g>
	<circle class="st10" cx="677.5" cy="99.7" r="5.3"/>
	<g>
		<circle cx="678.2" cy="100.3" r="4"/>
		<circle class="st10" cx="679.2" cy="100.1" r="1.3"/>
	</g>
</g>
<g>
	<circle class="st10" cx="703.9" cy="99.7" r="5.3"/>
	<g>
		<circle cx="703.1" cy="100.3" r="4"/>
		<circle class="st10" cx="702.2" cy="100.1" r="1.3"/>
	</g>
</g>
<polygon class="st12" points="621.4,118.7 628.5,118.7 623.4,125.1 628.7,125.1 620.8,136.1 622.5,127.1 618.3,127.1 "/>
<polygon class="st12" points="631.2,134.8 638.2,134.8 633.2,141.2 638.4,141.2 630.5,152.2 632.3,143.1 628.1,143.1 "/>
<polygon class="st11" points="647.8,126.2 654.9,126.2 649.8,132.6 655.1,132.6 647.2,143.6 648.9,134.6 644.7,134.6 "/>
<polygon class="st11" points="654.1,146.5 661.2,146.5 656.1,152.9 661.4,152.9 653.5,163.9 655.2,154.8 651,154.8 "/>
<polygon class="st12" points="754.9,117.8 747.9,117.8 752.9,124.2 747.6,124.2 755.6,135.2 753.8,126.2 758,126.2 "/>
<polygon class="st11" points="745.2,133.9 738.1,133.9 743.2,140.3 737.9,140.3 745.8,151.3 744.1,142.2 748.2,142.2 "/>
<polygon class="st11" points="728.5,125.3 721.5,125.3 726.5,131.7 721.2,131.7 729.2,142.7 727.4,133.7 731.6,133.7 "/>
<polygon class="st12" points="722.2,145.6 715.2,145.6 720.2,152 714.9,152 722.9,163 721.1,153.9 725.3,153.9 "/>
<linearGradient id="SVGID_31_" gradientUnits="userSpaceOnUse" x1="661.9589" y1="137.7447" x2="716.096" y2="137.7447">
	<stop  offset="0" style="stop-color:#A7A9AC"/>
	<stop  offset="0.5162" style="stop-color:#F1F2F2"/>
	<stop  offset="1" style="stop-color:#939598"/>
</linearGradient>
<path class="st42" d="M716.1,114.1c0,0-12.8,54.5-29.6,54.5c-21.5-0.1-24.6-56.4-24.6-56.4c12,1.5,12-5.3,28-5.2
	C706.1,107,710.8,122.1,716.1,114.1z"/>
<polygon class="st11" points="685.9,198.1 693,198.1 687.9,204.5 693.2,204.5 685.3,215.5 687,206.4 682.8,206.4 "/>
<polygon class="st11" points="653.3,198.1 660.4,198.1 655.3,204.5 660.6,204.5 652.7,215.5 654.4,206.4 650.2,206.4 "/>
<polygon class="st11" points="705.1,190.3 712.2,190.3 707.1,196.7 712.4,196.7 704.5,207.7 706.2,198.6 702,198.6 "/>
<polygon class="st12" points="671.7,190.3 678.8,190.3 673.7,196.7 679,196.7 671.1,207.7 672.8,198.6 668.6,198.6 "/>
<polygon class="st12" points="723.3,198.3 730.4,198.3 725.3,204.7 730.6,204.7 722.7,215.7 724.4,206.6 720.2,206.6 "/>
<polygon class="st12" points="647.5,182.9 654.2,185 647.5,189.6 652.5,191.2 641.8,199.4 646.1,191.3 642.1,190 "/>
<polygon class="st12" points="731,188 736.6,183.8 736.4,191.9 740.6,188.8 740.8,202.4 736.8,194.1 733.5,196.6 "/>
<polygon class="st11" points="673.6,210.3 680.7,211 675,216.9 680.3,217.3 671.4,227.6 674,218.7 669.8,218.4 "/>
<polygon class="st12" points="697,211.3 703.8,209.3 700.7,216.8 705.8,215.3 701.3,228.1 700.5,219 696.4,220.2 "/>
<path class="st14" d="M662.2,101.2c0,0,10.9-59,27.7-59.6c21.5-0.8,25.5,59,25.5,59c-0.3-7.2-8.6-16.4-24.7-15.7
	C674.7,85.4,667.2,92.9,662.2,101.2z"/>
<linearGradient id="SVGID_32_" gradientUnits="userSpaceOnUse" x1="662.3339" y1="70.5893" x2="714.9894" y2="70.5893">
	<stop  offset="0" style="stop-color:#006838"/>
	<stop  offset="0.5162" style="stop-color:#8DC63F"/>
	<stop  offset="1" style="stop-color:#006838"/>
</linearGradient>
<path class="st43" d="M662.3,100.8c0,0,10.4-59.7,27.2-60.3c21.5-0.8,25.5,59,25.5,59c-0.3-7.2-8.6-16.4-24.7-15.7
	S667.3,92.5,662.3,100.8z"/>
<polygon class="st14" points="685.1,84.4 682.7,90.3 691.8,84.3 "/>
<polygon class="st16" points="686,52.2 700.4,52.2 690,65.2 700.8,65.2 684.6,87.7 688.2,69.3 679.7,69.3 "/>
<path class="st0" d="M661.4,106.4c-1.3,0-2.3-1-2.3-2.2s1-2.2,2.3-2.2"/>
<path class="st0" d="M716.4,106.4c1.3,0,2.3-1,2.3-2.2s-1-2.2-2.3-2.2"/>
<ellipse class="st17" cx="691.5" cy="111.3" rx="9.5" ry="8"/>
<ellipse class="st0" cx="690.7" cy="109.2" rx="9.5" ry="8"/>
<ellipse class="st3" cx="690.9" cy="105.8" rx="5.4" ry="3.1"/>
<path class="st10" d="M684.1,136.7c0,0,5.2,2.8,2.2,9.8s-3.4,4.8-3.6,9.2c-0.2,4.4,4.8,9.6,4.8,9.6s2,1.6,2,0.2
	c0-1.4-3.8-5.8-1.8-9.8s7-3.2,8-9.8c1-6.6,0.6-7.4-1-11.2c-1.6-3.8-0.3-11.4-0.3-11.4s-7.7,2.2-15-6.3c-1.4-1.6-8.7,8.8,0.9,16.1
	C681.3,133.8,684.1,136.7,684.1,136.7z"/>
<path d="M680.7,118.1c0,0,2.9,4.2,8.7,4.5c5.7,0.4,12-4.5,13.1-6.4c2-3.3-8.9,16.4-15.9,16.2c-3.5-0.1-5.8-1.9-5.9-5
	C680.5,124.3,680.7,118.1,680.7,118.1z"/>
<g>
	<path class="st18" d="M691,129.1c0,1-2,2.4-4.3,2.4c-2.3,0-4.2-1.3-4.2-2.4c0-1,1.9-1.9,4.2-1.9S691,128.1,691,129.1z"/>
	<path class="st19" d="M687.4,127.4c-1.8,0.6-2.3,1.5-2.3,1.9s0,0.9,0.7,1.7"/>
</g>
<path class="st10" d="M661.4,111.8c0,0,2.6,25.6,5.8,33.2c3.2,7.6,3.3,11.3,8.3,17.1s6.4,5.7,8.5,6.1c3.1,0.7-2.8,1.4-7.2-15.2
	c-4.4-16.6,4.6-8.2-3-20c-4.8-7.4-7.6-9.4-5.8-14.8c1.8-5.4,7.2-8.3,7.2-8.3s-2.6,1.3-8.2,1.9C663.6,112.2,661.4,111.8,661.4,111.8z
	"/>
<path class="st10" d="M704.9,112.2c0,0,2.8,3.8,3.8,8.8c0.9,4.2,0.9,6-3.9,11.4c-4.8,5.4-4.6,5-4.8,8.7c-0.2,4.8,2.9,8.7,0.8,12.6
	c-2.1,3.9-4.7,7.2-6.5,8.7c-3.4,2.8-2.4,6.7,2.7-0.5c5.1-7.2,6.3-7.8,10.2-19.2c3.9-11.4,6.6-20.1,7.5-23.1c0.9-3,0.9-3.2,0.9-3.2
	l0.3-2c0,0-0.3,1.1-1.8,1.7c-1.4,0.6-3.2,0.1-5-1.3C707.3,113.2,704.9,112.2,704.9,112.2z"/>
<ellipse class="st0" cx="677.3" cy="98.4" rx="6.4" ry="6.8"/>
<ellipse class="st0" cx="704.2" cy="98.4" rx="6.4" ry="6.8"/>
<ellipse class="st5" cx="727.1" cy="32.5" rx="8.9" ry="7.1"/>
<path class="st0" d="M950.8,109.2c6.7,2.9,14.5-0.3,17.4-7c2.9-6.7-0.3-14.5-7-17.4"/>
<path class="st0" d="M813.9,111.5c-6.7,2.9-14.5-0.3-17.4-7c-2.9-6.7,1.6-15.1,7-17.4"/>
<linearGradient id="SVGID_33_" gradientUnits="userSpaceOnUse" x1="931.25" y1="207.8145" x2="969.4981" y2="207.8145">
	<stop  offset="0" style="stop-color:#662D91"/>
	<stop  offset="0.5805" style="stop-color:#00AEEF"/>
	<stop  offset="1" style="stop-color:#662D91;stop-opacity:0.5549"/>
</linearGradient>
<ellipse class="st44" cx="950.4" cy="207.8" rx="19.1" ry="7"/>
<linearGradient id="SVGID_34_" gradientUnits="userSpaceOnUse" x1="802.1064" y1="207.8145" x2="840.3546" y2="207.8145">
	<stop  offset="0" style="stop-color:#662D91"/>
	<stop  offset="0.5805" style="stop-color:#00AEEF"/>
	<stop  offset="1" style="stop-color:#662D91;stop-opacity:0.5549"/>
</linearGradient>
<ellipse class="st45" cx="821.2" cy="207.8" rx="19.1" ry="7"/>
<path class="st3" d="M815.4,110.4c-6.7,2.9-14.5-0.3-17.4-7c-2.9-6.7,0.3-14.5,7-17.4"/>
<path class="st3" d="M949.6,107.6c6.7,2.9,14.5-0.3,17.4-7c2.9-6.7-0.3-14.5-7-17.4"/>
<radialGradient id="SVGID_35_" cx="882.4276" cy="78.3709" r="78.3709" gradientUnits="userSpaceOnUse">
	<stop  offset="0" style="stop-color:#2484C6"/>
	<stop  offset="0.4642" style="stop-color:#662D91;stop-opacity:0.7933"/>
	<stop  offset="1" style="stop-color:#27AAE1;stop-opacity:0.5549"/>
</radialGradient>
<circle class="st46" cx="882.4" cy="78.4" r="78.4"/>
<ellipse class="st5" cx="836.6" cy="81.9" rx="16.5" ry="11.9"/>
<ellipse class="st5" cx="854.5" cy="70.6" rx="8.6" ry="5.6"/>
<ellipse class="st5" cx="816.3" cy="67.6" rx="8.6" ry="5.6"/>
<ellipse class="st5" cx="837.5" cy="102.3" rx="10.6" ry="6"/>
<circle class="st5" cx="935" cy="44.2" r="13.5"/>
<ellipse class="st5" cx="907.3" cy="37.6" rx="6.6" ry="5.1"/>
<ellipse class="st5" cx="913.6" cy="19" rx="4.5" ry="3.6"/>
<ellipse class="st5" cx="939" cy="66" rx="8.9" ry="7.1"/>
<ellipse class="st5" cx="912.9" cy="83" rx="21.4" ry="18.4"/>
<ellipse class="st5" cx="936" cy="95.4" rx="10.3" ry="9"/>
<circle class="st5" cx="863.1" cy="32.8" r="17.8"/>
<circle class="st5" cx="898" cy="50.2" r="17.8"/>
<ellipse class="st5" cx="883.2" cy="17.8" rx="11.5" ry="9"/>
<ellipse class="st5" cx="848.2" cy="24.9" rx="12.4" ry="4.9"/>
<ellipse class="st5" cx="838.2" cy="53.5" rx="18" ry="14.6"/>
<linearGradient id="SVGID_36_" gradientUnits="userSpaceOnUse" x1="810.806" y1="219.889" x2="961.5485" y2="219.889">
	<stop  offset="0" style="stop-color:#662D91"/>
	<stop  offset="0.5805" style="stop-color:#00AEEF"/>
	<stop  offset="1" style="stop-color:#662D91;stop-opacity:0.5549"/>
</linearGradient>
<ellipse class="st47" cx="886.2" cy="219.9" rx="75.4" ry="13.8"/>
<linearGradient id="SVGID_37_" gradientUnits="userSpaceOnUse" x1="827.5303" y1="191.9155" x2="946.9994" y2="191.9155">
	<stop  offset="0" style="stop-color:#006838"/>
	<stop  offset="0.5162" style="stop-color:#8DC63F"/>
	<stop  offset="1" style="stop-color:#006838"/>
</linearGradient>
<path class="st48" d="M827.5,209.2l16-52.6l83.2-2.7l20.2,57.5c0,10.3-26.7,18.6-59.7,18.6s-59.7-8.3-59.7-18.6V209.2z"/>
<path class="st8" d="M837.4,176.8c13.5,5.7,32.3,9.4,50.4,9.4c17.2,0,33.2-3.1,46.3-8.3l-6.7-18.9l-85.2,2.4L837.4,176.8z"/>
<linearGradient id="SVGID_38_" gradientUnits="userSpaceOnUse" x1="809.5652" y1="136.4543" x2="953.9398" y2="136.4543">
	<stop  offset="0" style="stop-color:#006838"/>
	<stop  offset="0.5162" style="stop-color:#8DC63F"/>
	<stop  offset="1" style="stop-color:#006838"/>
</linearGradient>
<path class="st49" d="M953.9,99c-13.4,14.9-40.7,25.2-72.2,25.2c-31.5,0-58.8-10.2-72.2-25.2v49.7c13.4,14.9,40.7,25.2,72.2,25.2
	c31.5,0,58.8-10.2,72.2-25.2V99z"/>
<path class="st8" d="M913.5,121.1c0,0-12.8,55.7-29.6,55.6c-21.5-0.1-24.6-56.4-24.6-56.4c12,1.5,12-5.3,28-5.2
	C903.5,115.1,906.5,119.9,913.5,121.1z"/>
<circle class="st3" cx="885.2" cy="107.5" r="27.9"/>
<ellipse class="st3" cx="857.3" cy="103.4" rx="5.7" ry="5.5"/>
<ellipse class="st3" cx="913.1" cy="103.4" rx="5.7" ry="5.5"/>
<ellipse class="st0" cx="873.6" cy="98.4" rx="6.4" ry="6.8"/>
<ellipse class="st0" cx="900.4" cy="98.4" rx="6.4" ry="6.8"/>
<g>
	<circle class="st10" cx="873.7" cy="99.7" r="5.3"/>
	<g>
		<circle cx="874.5" cy="100.3" r="4"/>
		<circle class="st10" cx="875.4" cy="100.1" r="1.3"/>
	</g>
</g>
<g>
	<circle class="st10" cx="900.1" cy="99.7" r="5.3"/>
	<g>
		<circle cx="899.4" cy="100.3" r="4"/>
		<circle class="st10" cx="898.4" cy="100.1" r="1.3"/>
	</g>
</g>
<polygon class="st12" points="817.6,118.7 824.7,118.7 819.6,125.1 824.9,125.1 817,136.1 818.7,127.1 814.6,127.1 "/>
<polygon class="st11" points="827.4,134.8 834.4,134.8 829.4,141.2 834.7,141.2 826.7,152.2 828.5,143.1 824.3,143.1 "/>
<polygon class="st11" points="844,126.2 851.1,126.2 846,132.6 851.3,132.6 843.4,143.6 845.1,134.6 841,134.6 "/>
<polygon class="st11" points="850.3,146.5 857.4,146.5 852.3,152.9 857.6,152.9 849.7,163.9 851.4,154.8 847.3,154.8 "/>
<polygon class="st11" points="951.1,117.8 944.1,117.8 949.2,124.2 943.9,124.2 951.8,135.2 950,126.2 954.2,126.2 "/>
<polygon class="st12" points="941.4,133.9 934.3,133.9 939.4,140.3 934.1,140.3 942,151.3 940.3,142.2 944.5,142.2 "/>
<polygon class="st12" points="924.7,125.3 917.7,125.3 922.7,131.7 917.5,131.7 925.4,142.7 923.6,133.7 927.8,133.7 "/>
<polygon class="st11" points="918.4,145.6 911.4,145.6 916.4,152 911.2,152 919.1,163 917.3,153.9 921.5,153.9 "/>
<linearGradient id="SVGID_39_" gradientUnits="userSpaceOnUse" x1="858.1757" y1="137.7447" x2="912.3129" y2="137.7447">
	<stop  offset="0" style="stop-color:#A7A9AC"/>
	<stop  offset="0.5162" style="stop-color:#F1F2F2"/>
	<stop  offset="1" style="stop-color:#939598"/>
</linearGradient>
<path class="st50" d="M912.3,114.1c0,0-12.8,54.5-29.6,54.5c-21.5-0.1-24.6-56.4-24.6-56.4c12,1.5,12-5.3,28-5.2
	C902.3,107,907,122.1,912.3,114.1z"/>
<polygon class="st12" points="882.1,198.1 889.2,198.1 884.1,204.5 889.4,204.5 881.5,215.5 883.2,206.4 879.1,206.4 "/>
<polygon class="st12" points="849.5,198.1 856.6,198.1 851.5,204.5 856.8,204.5 848.9,215.5 850.6,206.4 846.5,206.4 "/>
<polygon class="st11" points="901.3,190.3 908.4,190.3 903.3,196.7 908.6,196.7 900.7,207.7 902.4,198.6 898.3,198.6 "/>
<polygon class="st11" points="867.9,190.3 875,190.3 869.9,196.7 875.2,196.7 867.3,207.7 869,198.6 864.9,198.6 "/>
<polygon class="st12" points="919.5,198.3 926.6,198.3 921.5,204.7 926.8,204.7 918.9,215.7 920.6,206.6 916.5,206.6 "/>
<polygon class="st11" points="843.7,182.9 850.4,185 843.7,189.6 848.8,191.2 838,199.4 842.3,191.3 838.3,190 "/>
<polygon class="st11" points="927.2,188 932.8,183.8 932.6,191.9 936.8,188.8 937,202.4 933.1,194.1 929.7,196.6 "/>
<polygon class="st11" points="869.9,210.3 876.9,211 871.2,216.9 876.5,217.3 867.6,227.6 870.2,218.7 866,218.4 "/>
<polygon class="st11" points="893.3,211.3 900,209.3 897,216.8 902,215.3 897.5,228.1 896.7,219 892.7,220.2 "/>
<path class="st14" d="M858.4,101.2c0,0,10.9-59,27.7-59.6c21.5-0.8,25.5,59,25.5,59c-0.3-7.2-8.6-16.4-24.7-15.7
	S863.4,92.9,858.4,101.2z"/>
<linearGradient id="SVGID_40_" gradientUnits="userSpaceOnUse" x1="858.5507" y1="70.5893" x2="911.2062" y2="70.5893">
	<stop  offset="0" style="stop-color:#006838"/>
	<stop  offset="0.5162" style="stop-color:#8DC63F"/>
	<stop  offset="1" style="stop-color:#006838"/>
</linearGradient>
<path class="st51" d="M858.6,100.8c0,0,10.4-59.7,27.2-60.3c21.5-0.8,25.5,59,25.5,59c-0.3-7.2-8.6-16.4-24.7-15.7
	S863.5,92.5,858.6,100.8z"/>
<polygon class="st14" points="881.3,84.4 878.9,90.3 888,84.3 "/>
<polygon class="st16" points="882.2,52.2 896.6,52.2 886.3,65.2 897.1,65.2 880.9,87.7 884.5,69.3 875.9,69.3 "/>
<path class="st0" d="M857.7,106.4c-1.3,0-2.3-1-2.3-2.2s1-2.2,2.3-2.2"/>
<path class="st0" d="M912.6,106.4c1.3,0,2.3-1,2.3-2.2s-1-2.2-2.3-2.2"/>
<ellipse class="st17" cx="887.7" cy="111.3" rx="9.5" ry="8"/>
<ellipse class="st0" cx="886.9" cy="109.2" rx="9.5" ry="8"/>
<ellipse class="st3" cx="887.1" cy="105.8" rx="5.4" ry="3.1"/>
<path class="st10" d="M880.3,136.7c0,0,5.2,2.8,2.2,9.8s-3.4,4.8-3.6,9.2c-0.2,4.4,4.8,9.6,4.8,9.6s2,1.6,2,0.2
	c0-1.4-3.8-5.8-1.8-9.8s7-3.2,8-9.8c1-6.6,0.6-7.4-1-11.2c-1.6-3.8-0.3-11.4-0.3-11.4s-7.7,2.2-15-6.3c-1.4-1.6-8.7,8.8,0.9,16.1
	C877.5,133.8,880.3,136.7,880.3,136.7z"/>
<path d="M876.9,118.1c0,0,2.9,4.2,8.7,4.5c5.7,0.4,12-4.5,13.1-6.4c2-3.3-8.9,16.4-15.9,16.2c-3.5-0.1-5.8-1.9-5.9-5
	C876.7,124.3,876.9,118.1,876.9,118.1z"/>
<g>
	<path class="st18" d="M887.2,129.1c0,1-2,2.4-4.3,2.4c-2.3,0-4.2-1.3-4.2-2.4c0-1,1.9-1.9,4.2-1.9
		C885.3,127.2,887.2,128.1,887.2,129.1z"/>
	<path class="st19" d="M883.6,127.4c-1.8,0.6-2.3,1.5-2.3,1.9s0,0.9,0.7,1.7"/>
</g>
<path class="st10" d="M857.6,111.8c0,0,2.6,25.6,5.8,33.2c3.2,7.6,3.3,11.3,8.3,17.1s6.4,5.7,8.6,6.1c3.1,0.7-2.9,1.4-7.2-15.2
	c-4.4-16.6,4.6-8.2-3-20c-4.8-7.4-7.6-9.4-5.8-14.8c1.8-5.4,7.2-8.3,7.2-8.3s-2.6,1.3-8.2,1.9C859.8,112.2,857.6,111.8,857.6,111.8z
	"/>
<path class="st10" d="M901.1,112.2c0,0,2.8,3.8,3.9,8.8c0.8,4.2,0.9,6-3.9,11.4c-4.8,5.4-4.6,5-4.8,8.7c-0.2,4.8,2.9,8.7,0.8,12.6
	c-2.1,3.9-4.7,7.2-6.5,8.7c-3.4,2.8-2.4,6.7,2.7-0.5c5.1-7.2,6.3-7.8,10.2-19.2c3.9-11.4,6.6-20.1,7.5-23.1c0.9-3,0.9-3.2,0.9-3.2
	l0.3-2c0,0-0.3,1.1-1.8,1.7c-1.4,0.6-3.1,0.1-5-1.3C903.5,113.2,901.1,112.2,901.1,112.2z"/>
<ellipse class="st5" cx="924.3" cy="30.5" rx="8.9" ry="7.1"/>
<path class="st0" d="M1150.8,109.2c6.7,2.9,14.5-0.3,17.4-7s-0.3-14.5-7-17.4"/>
<path class="st0" d="M1013.9,111.5c-6.7,2.9-14.5-0.3-17.4-7c-2.9-6.7,1.6-15.1,7-17.4"/>
<linearGradient id="SVGID_41_" gradientUnits="userSpaceOnUse" x1="1131.25" y1="207.8145" x2="1169.498" y2="207.8145">
	<stop  offset="0" style="stop-color:#662D91"/>
	<stop  offset="0.5805" style="stop-color:#00AEEF"/>
	<stop  offset="1" style="stop-color:#662D91;stop-opacity:0.5549"/>
</linearGradient>
<ellipse class="st52" cx="1150.4" cy="207.8" rx="19.1" ry="7"/>
<linearGradient id="SVGID_42_" gradientUnits="userSpaceOnUse" x1="1002.1064" y1="207.8145" x2="1040.3546" y2="207.8145">
	<stop  offset="0" style="stop-color:#662D91"/>
	<stop  offset="0.5805" style="stop-color:#00AEEF"/>
	<stop  offset="1" style="stop-color:#662D91;stop-opacity:0.5549"/>
</linearGradient>
<ellipse class="st53" cx="1021.2" cy="207.8" rx="19.1" ry="7"/>
<path class="st3" d="M1015.4,110.4c-6.7,2.9-14.5-0.3-17.4-7c-2.9-6.7,0.3-14.5,7-17.4"/>
<path class="st3" d="M1149.6,107.6c6.7,2.9,14.5-0.3,17.4-7s-0.3-14.5-7-17.4"/>
<radialGradient id="SVGID_43_" cx="1082.4275" cy="78.3709" r="78.3709" gradientUnits="userSpaceOnUse">
	<stop  offset="0" style="stop-color:#2484C6"/>
	<stop  offset="0.4642" style="stop-color:#662D91;stop-opacity:0.7933"/>
	<stop  offset="1" style="stop-color:#27AAE1;stop-opacity:0.5549"/>
</radialGradient>
<circle class="st54" cx="1082.4" cy="78.4" r="78.4"/>
<ellipse class="st5" cx="1036.6" cy="84.9" rx="16.5" ry="11.9"/>
<ellipse class="st5" cx="1054.5" cy="73.6" rx="8.6" ry="5.6"/>
<ellipse class="st5" cx="1016.3" cy="64.6" rx="8.6" ry="5.6"/>
<ellipse class="st5" cx="1037.5" cy="100.3" rx="10.6" ry="6"/>
<circle class="st5" cx="1132" cy="44.2" r="13.5"/>
<ellipse class="st5" cx="1107.3" cy="33.6" rx="6.6" ry="5.1"/>
<ellipse class="st5" cx="1113.6" cy="22" rx="4.5" ry="3.6"/>
<ellipse class="st5" cx="1145" cy="66" rx="8.9" ry="7.1"/>
<ellipse class="st5" cx="1114.9" cy="79" rx="21.4" ry="18.4"/>
<ellipse class="st5" cx="1139" cy="93.4" rx="10.3" ry="9"/>
<circle class="st5" cx="1063.1" cy="33.8" r="17.8"/>
<circle class="st5" cx="1098" cy="45.2" r="17.8"/>
<ellipse class="st5" cx="1086.2" cy="14.8" rx="11.5" ry="9"/>
<ellipse class="st5" cx="1048.2" cy="21.9" rx="12.4" ry="4.9"/>
<ellipse class="st5" cx="1038.2" cy="55.5" rx="18" ry="14.6"/>
<linearGradient id="SVGID_44_" gradientUnits="userSpaceOnUse" x1="1010.806" y1="219.889" x2="1161.5485" y2="219.889">
	<stop  offset="0" style="stop-color:#662D91"/>
	<stop  offset="0.5805" style="stop-color:#00AEEF"/>
	<stop  offset="1" style="stop-color:#662D91;stop-opacity:0.5549"/>
</linearGradient>
<ellipse class="st55" cx="1086.2" cy="219.9" rx="75.4" ry="13.8"/>
<linearGradient id="SVGID_45_" gradientUnits="userSpaceOnUse" x1="1027.5303" y1="191.9155" x2="1146.9994" y2="191.9155">
	<stop  offset="0" style="stop-color:#006838"/>
	<stop  offset="0.5162" style="stop-color:#8DC63F"/>
	<stop  offset="1" style="stop-color:#006838"/>
</linearGradient>
<path class="st56" d="M1027.5,209.2l16-52.6l83.2-2.7l20.2,57.5c0,10.3-26.7,18.6-59.7,18.6s-59.7-8.3-59.7-18.6V209.2z"/>
<path class="st8" d="M1037.4,176.8c13.5,5.7,32.3,9.4,50.4,9.4c17.2,0,33.2-3.1,46.3-8.3l-6.7-18.9l-85.2,2.4L1037.4,176.8z"/>
<linearGradient id="SVGID_46_" gradientUnits="userSpaceOnUse" x1="1009.5652" y1="136.4543" x2="1153.9398" y2="136.4543">
	<stop  offset="0" style="stop-color:#006838"/>
	<stop  offset="0.5162" style="stop-color:#8DC63F"/>
	<stop  offset="1" style="stop-color:#006838"/>
</linearGradient>
<path class="st57" d="M1153.9,99c-13.4,14.9-40.7,25.2-72.2,25.2c-31.5,0-58.8-10.2-72.2-25.2v49.7c13.4,14.9,40.7,25.2,72.2,25.2
	c31.5,0,58.8-10.2,72.2-25.2V99z"/>
<path class="st8" d="M1113.5,121.1c0,0-12.8,55.7-29.6,55.6c-21.5-0.1-24.6-56.4-24.6-56.4c12,1.5,12-5.3,28-5.2
	C1103.5,115.1,1106.5,119.9,1113.5,121.1z"/>
<circle class="st3" cx="1085.2" cy="107.5" r="27.9"/>
<ellipse class="st3" cx="1057.3" cy="103.4" rx="5.7" ry="5.5"/>
<ellipse class="st3" cx="1113.1" cy="103.4" rx="5.7" ry="5.5"/>
<ellipse class="st0" cx="1073.6" cy="98.4" rx="6.4" ry="6.8"/>
<ellipse class="st0" cx="1100.4" cy="98.4" rx="6.4" ry="6.8"/>
<g>
	<circle class="st10" cx="1073.7" cy="99.7" r="5.3"/>
	<g>
		<circle cx="1074.5" cy="100.3" r="4"/>
		<circle class="st10" cx="1075.4" cy="100.1" r="1.3"/>
	</g>
</g>
<g>
	<circle class="st10" cx="1100.1" cy="99.7" r="5.3"/>
	<g>
		<circle cx="1099.4" cy="100.3" r="4"/>
		<circle class="st10" cx="1098.4" cy="100.1" r="1.3"/>
	</g>
</g>
<polygon class="st12" points="1017.6,118.7 1024.7,118.7 1019.6,125.1 1024.9,125.1 1017,136.1 1018.7,127.1 1014.6,127.1 "/>
<polygon class="st11" points="1027.4,134.8 1034.4,134.8 1029.4,141.2 1034.7,141.2 1026.7,152.2 1028.5,143.1 1024.3,143.1 "/>
<polygon class="st12" points="1044,126.2 1051.1,126.2 1046,132.6 1051.3,132.6 1043.4,143.6 1045.1,134.6 1041,134.6 "/>
<polygon class="st12" points="1050.3,146.5 1057.4,146.5 1052.3,152.9 1057.6,152.9 1049.7,163.9 1051.4,154.8 1047.3,154.8 "/>
<polygon class="st11" points="1151.1,117.8 1144.1,117.8 1149.2,124.2 1143.9,124.2 1151.8,135.2 1150,126.2 1154.2,126.2 "/>
<polygon class="st11" points="1141.4,133.9 1134.3,133.9 1139.4,140.3 1134.1,140.3 1142,151.3 1140.3,142.2 1144.5,142.2 "/>
<polygon class="st11" points="1124.7,125.3 1117.7,125.3 1122.7,131.7 1117.5,131.7 1125.4,142.7 1123.6,133.7 1127.8,133.7 "/>
<polygon class="st11" points="1118.4,145.6 1111.4,145.6 1116.4,152 1111.2,152 1119.1,163 1117.3,153.9 1121.5,153.9 "/>
<linearGradient id="SVGID_47_" gradientUnits="userSpaceOnUse" x1="1058.1758" y1="137.7447" x2="1112.3129" y2="137.7447">
	<stop  offset="0" style="stop-color:#A7A9AC"/>
	<stop  offset="0.5162" style="stop-color:#F1F2F2"/>
	<stop  offset="1" style="stop-color:#939598"/>
</linearGradient>
<path class="st58" d="M1112.3,114.1c0,0-12.8,54.5-29.6,54.5c-21.5-0.1-24.6-56.4-24.6-56.4c12,1.5,12-5.3,28-5.2
	C1102.3,107,1107,122.1,1112.3,114.1z"/>
<polygon class="st11" points="1082.1,198.1 1089.2,198.1 1084.1,204.5 1089.4,204.5 1081.5,215.5 1083.2,206.4 1079.1,206.4 "/>
<polygon class="st11" points="1049.5,198.1 1056.6,198.1 1051.5,204.5 1056.8,204.5 1048.9,215.5 1050.6,206.4 1046.5,206.4 "/>
<polygon class="st12" points="1101.3,190.3 1108.4,190.3 1103.3,196.7 1108.6,196.7 1100.7,207.7 1102.4,198.6 1098.3,198.6 "/>
<polygon class="st12" points="1067.9,190.3 1075,190.3 1069.9,196.7 1075.2,196.7 1067.3,207.7 1069,198.6 1064.9,198.6 "/>
<polygon class="st11" points="1119.5,198.3 1126.6,198.3 1121.5,204.7 1126.8,204.7 1118.9,215.7 1120.6,206.6 1116.5,206.6 "/>
<polygon class="st12" points="1043.7,182.9 1050.4,185 1043.7,189.6 1048.8,191.2 1038,199.4 1042.3,191.3 1038.3,190 "/>
<polygon class="st12" points="1127.2,188 1132.8,183.8 1132.6,191.9 1136.8,188.8 1137,202.4 1133.1,194.1 1129.7,196.6 "/>
<polygon class="st12" points="1069.9,210.3 1076.9,211 1071.2,216.9 1076.5,217.3 1067.6,227.6 1070.2,218.7 1066,218.4 "/>
<polygon class="st12" points="1093.3,211.3 1100,209.3 1097,216.8 1102,215.3 1097.5,228.1 1096.7,219 1092.7,220.2 "/>
<path class="st14" d="M1058.4,101.2c0,0,10.9-59,27.7-59.6c21.5-0.8,25.5,59,25.5,59c-0.3-7.2-8.6-16.4-24.7-15.7
	C1070.9,85.4,1063.4,92.9,1058.4,101.2z"/>
<linearGradient id="SVGID_48_" gradientUnits="userSpaceOnUse" x1="1058.5508" y1="70.5893" x2="1111.2062" y2="70.5893">
	<stop  offset="0" style="stop-color:#006838"/>
	<stop  offset="0.5162" style="stop-color:#8DC63F"/>
	<stop  offset="1" style="stop-color:#006838"/>
</linearGradient>
<path class="st59" d="M1058.6,100.8c0,0,10.4-59.7,27.2-60.3c21.5-0.8,25.5,59,25.5,59c-0.3-7.2-8.6-16.4-24.7-15.7
	C1070.5,84.3,1063.5,92.5,1058.6,100.8z"/>
<polygon class="st14" points="1081.3,84.4 1078.9,90.3 1088,84.3 "/>
<polygon class="st16" points="1082.2,52.2 1096.6,52.2 1086.3,65.2 1097.1,65.2 1080.9,87.7 1084.5,69.3 1075.9,69.3 "/>
<path class="st0" d="M1057.7,106.4c-1.3,0-2.3-1-2.3-2.2s1-2.2,2.3-2.2"/>
<path class="st0" d="M1112.6,106.4c1.3,0,2.3-1,2.3-2.2s-1-2.2-2.3-2.2"/>
<ellipse class="st17" cx="1087.7" cy="111.3" rx="9.5" ry="8"/>
<ellipse class="st0" cx="1086.9" cy="109.2" rx="9.5" ry="8"/>
<ellipse class="st3" cx="1087.1" cy="105.8" rx="5.4" ry="3.1"/>
<path class="st10" d="M1080.3,136.7c0,0,5.2,2.8,2.2,9.8s-3.4,4.8-3.6,9.2c-0.2,4.4,4.8,9.6,4.8,9.6s2,1.6,2,0.2
	c0-1.4-3.8-5.8-1.8-9.8s7-3.2,8-9.8c1-6.6,0.6-7.4-1-11.2c-1.6-3.8-0.3-11.4-0.3-11.4s-7.6,2.2-15-6.3c-1.4-1.6-8.7,8.8,0.9,16.1
	C1077.5,133.8,1080.3,136.7,1080.3,136.7z"/>
<path d="M1076.9,118.1c0,0,2.9,4.2,8.7,4.5c5.7,0.4,12-4.5,13.1-6.4c2-3.3-8.9,16.4-15.9,16.2c-3.5-0.1-5.8-1.9-5.9-5
	C1076.7,124.3,1076.9,118.1,1076.9,118.1z"/>
<g>
	<path class="st18" d="M1087.2,129.1c0,1-2,2.4-4.3,2.4c-2.3,0-4.2-1.3-4.2-2.4c0-1,1.9-1.9,4.2-1.9
		C1085.3,127.2,1087.2,128.1,1087.2,129.1z"/>
	<path class="st19" d="M1083.6,127.4c-1.8,0.6-2.3,1.5-2.3,1.9s0,0.9,0.7,1.7"/>
</g>
<path class="st10" d="M1057.6,111.8c0,0,2.6,25.6,5.8,33.2c3.2,7.6,3.3,11.3,8.3,17.1s6.4,5.7,8.5,6.1c3.1,0.7-2.8,1.4-7.2-15.2
	s4.6-8.2-3-20c-4.8-7.4-7.6-9.4-5.8-14.8c1.8-5.4,7.2-8.3,7.2-8.3s-2.6,1.3-8.2,1.9C1059.8,112.2,1057.6,111.8,1057.6,111.8z"/>
<path class="st10" d="M1101.1,112.2c0,0,2.8,3.8,3.8,8.8c0.8,4.2,0.9,6-3.9,11.4c-4.8,5.4-4.6,5-4.8,8.7c-0.2,4.8,2.9,8.7,0.8,12.6
	c-2.1,3.9-4.7,7.2-6.5,8.7c-3.4,2.8-2.4,6.7,2.7-0.5s6.3-7.8,10.2-19.2c3.9-11.4,6.6-20.1,7.5-23.1s0.9-3.2,0.9-3.2l0.3-2
	c0,0-0.3,1.1-1.8,1.7c-1.4,0.6-3.2,0.1-5-1.3C1103.5,113.2,1101.1,112.2,1101.1,112.2z"/>
<ellipse class="st5" cx="1120.3" cy="30.5" rx="8.9" ry="7.1"/>
</svg>
